<?xml version="1.0" encoding="UTF-8" standalone="no"?>
<!-- Created with Inkscape (http://www.inkscape.org/) -->

<svg
   xmlns:dc="http://purl.org/dc/elements/1.1/"
   xmlns:cc="http://creativecommons.org/ns#"
   xmlns:rdf="http://www.w3.org/1999/02/22-rdf-syntax-ns#"
   xmlns:svg="http://www.w3.org/2000/svg"
   xmlns="http://www.w3.org/2000/svg"
   xmlns:sodipodi="http://sodipodi.sourceforge.net/DTD/sodipodi-0.dtd"
   xmlns:inkscape="http://www.inkscape.org/namespaces/inkscape"
   width="64px"
   height="64px"
   id="svg3986"
   version="1.1"
   inkscape:version="0.48.3.1 r9886"
   sodipodi:docname="bush.svg"
   inkscape:export-filename="/home/risto/Dropbox/type-war-game/public/images/bush.png"
   inkscape:export-xdpi="90.404282"
   inkscape:export-ydpi="90.404282">
  <defs
     id="defs3988" />
  <sodipodi:namedview
     id="base"
     pagecolor="#ffffff"
     bordercolor="#666666"
     borderopacity="1.0"
     inkscape:pageopacity="0.0"
     inkscape:pageshadow="2"
     inkscape:zoom="11"
     inkscape:cx="26.210544"
     inkscape:cy="32.536462"
     inkscape:current-layer="layer1"
     showgrid="true"
     inkscape:document-units="px"
     inkscape:grid-bbox="true"
     inkscape:window-width="1916"
     inkscape:window-height="1041"
     inkscape:window-x="0"
     inkscape:window-y="18"
     inkscape:window-maximized="0">
    <inkscape:grid
       type="xygrid"
       id="grid3994" />
  </sodipodi:namedview>
  <metadata
     id="metadata3991">
    <rdf:RDF>
      <cc:Work
         rdf:about="">
        <dc:format>image/svg+xml</dc:format>
        <dc:type
           rdf:resource="http://purl.org/dc/dcmitype/StillImage" />
        <dc:title></dc:title>
      </cc:Work>
    </rdf:RDF>
  </metadata>
  <g
     id="layer1"
     inkscape:label="Layer 1"
     inkscape:groupmode="layer">
    <path
       style="fill:#006d00;fill-opacity:1;stroke:#00ba00;stroke-width:0.8;stroke-linecap:butt;stroke-linejoin:round;stroke-opacity:1;marker-mid:none;stroke-miterlimit:4;stroke-dasharray:none"
       d="M 22,64 C 17.703037,58.740364 13.299462,53.483967 10.009472,47.514458 9.5695349,46.693032 8.4579184,44.338295 9.1682129,44.223877 c 4.2151431,5.507501 8.3196541,11.117477 12.9111331,16.321289 0.878893,1.221012 1.223747,0.500243 0.479904,-0.48938 -3.312571,-5.715075 -7.523649,-10.874375 -10.641571,-16.705322 -1.108768,-1.6274 0.627263,-1.55561 1.416305,-0.461792 3.71377,3.68462 6.470397,8.193675 9.316407,12.550781 0.756263,1.207078 -1.001181,-2.243481 -1.243409,-2.918457 -1.57449,-3.67901 -3.417948,-7.284001 -4.489654,-11.150207 0.475677,-0.861187 1.678277,1.593479 2.219578,2.174102 C 21.208768,46.621827 23.115254,49.806207 25,53 24.022287,48.533561 22.881193,44.074844 22.444153,39.515045 c 0.07885,-2.167444 1.469077,1.178119 1.674255,1.884369 1.288564,3.36438 1.905053,6.961726 3.343415,10.266724 1.119831,1.085788 0.860762,-1.979898 0.967937,-2.708699 0.114357,-4.277841 -0.304064,-8.54744 -0.414135,-12.816814 -0.10223,-0.708929 0.256735,-3.264505 0.728668,-1.270844 C 29.953346,40.506699 30.402749,46.274247 31,52 c -0.667343,0.667343 -1.839464,1.839464 -0.494385,0.494385 2.315766,-2.180103 2.798346,-5.530995 3.497772,-8.482819 C 34.454951,41.69349 34.781556,39.351317 35,37 35.356996,36.133795 37.374788,33.531723 37.181549,35.845062 36.09088,41.889615 34.997456,47.937612 34,54 c 0.691576,2.218227 2.968604,-0.836488 2.947704,-2.177811 1.172923,-4.295294 1.350079,-8.796677 2.483204,-13.09465 1.088138,-0.51225 0.640006,2.808143 0.553124,3.729851 -0.437914,3.976373 -1.762958,7.82775 -1.95089,11.830391 0.51074,2.334938 2.570128,-1.081312 2.772392,-2.159161 1.18477,-3.01063 1.535528,-6.270973 2.618782,-9.306599 1.238481,-0.35185 0.637907,2.79317 0.455384,3.799347 -0.495754,2.707952 -1.569022,5.27781 -2.039856,7.986054 0.606306,1.015078 1.860262,-1.582325 2.394928,-2.134583 1.032289,-1.348779 1.879236,-3.309889 2.874603,-4.394714 -0.0078,1.720935 -1.201514,3.201066 -1.971661,4.691143 C 43.508785,55.486797 41.549652,58.083146 39,60 c 3.310681,-0.68937 7.086281,-1.854769 8.703125,-5.115234 0.800132,-0.996465 1.25637,-2.994394 2.25,-3.410157 0.165836,2.184066 -1.275918,4.11446 -2.498016,5.795502 -1.220445,1.688451 -3.044559,2.758371 -5.030548,3.285797 -0.940687,0.396429 -3.20529,1.147848 -3.121827,1.442139 2.484501,-0.106335 5.068004,0.0099 7.442627,-0.822022 1.278664,-0.771872 1.82881,-3.247543 3.455811,-3.045166 -1.162936,1.561969 -1.649264,4.214917 -3.763672,4.603516 C 43.455264,63.371549 40.413934,63.828029 37.370826,64 32.247217,64 27.123609,64 22,64 z"
       id="path3998"
       inkscape:connector-curvature="0" />
  </g>
</svg>
