<?xml version="1.0" encoding="UTF-8" standalone="no"?>
<!-- Created with Inkscape (http://www.inkscape.org/) -->

<svg
   xmlns:dc="http://purl.org/dc/elements/1.1/"
   xmlns:cc="http://creativecommons.org/ns#"
   xmlns:rdf="http://www.w3.org/1999/02/22-rdf-syntax-ns#"
   xmlns:svg="http://www.w3.org/2000/svg"
   xmlns="http://www.w3.org/2000/svg"
   xmlns:sodipodi="http://sodipodi.sourceforge.net/DTD/sodipodi-0.dtd"
   xmlns:inkscape="http://www.inkscape.org/namespaces/inkscape"
   width="64px"
   height="64px"
   id="svg2985"
   version="1.1"
   inkscape:version="0.48.3.1 r9886"
   sodipodi:docname="small-house.svg"
   inkscape:export-filename="/home/risto/Dropbox/type-war-game/public/images/small-house.png"
   inkscape:export-xdpi="90.404282"
   inkscape:export-ydpi="90.404282">
  <defs
     id="defs2987" />
  <sodipodi:namedview
     id="base"
     pagecolor="#ffffff"
     bordercolor="#666666"
     borderopacity="1.0"
     inkscape:pageopacity="0.0"
     inkscape:pageshadow="2"
     inkscape:zoom="11"
     inkscape:cx="30.95283"
     inkscape:cy="33.163118"
     inkscape:current-layer="layer1"
     showgrid="true"
     inkscape:document-units="px"
     inkscape:grid-bbox="true"
     inkscape:snap-global="true"
     inkscape:window-width="1916"
     inkscape:window-height="1041"
     inkscape:window-x="0"
     inkscape:window-y="18"
     inkscape:window-maximized="0">
    <inkscape:grid
       type="xygrid"
       id="grid2995" />
  </sodipodi:namedview>
  <metadata
     id="metadata2990">
    <rdf:RDF>
      <cc:Work
         rdf:about="">
        <dc:format>image/svg+xml</dc:format>
        <dc:type
           rdf:resource="http://purl.org/dc/dcmitype/StillImage" />
        <dc:title></dc:title>
      </cc:Work>
    </rdf:RDF>
  </metadata>
  <g
     id="layer1"
     inkscape:label="Layer 1"
     inkscape:groupmode="layer">
    <rect
       style="fill:#ac9d93;fill-opacity:0.99186993999999995;stroke:none"
       id="rect3768"
       width="5"
       height="5"
       x="30"
       y="21" />
    <rect
       style="fill:#aa4400;fill-opacity:0.99186993;stroke:none"
       id="rect2993"
       width="32"
       height="32"
       x="15.090909"
       y="31.909092" />
    <path
       style="fill:#003a00;fill-opacity:0.99186993;stroke:none"
       d="m 15,24.09091 33,0 9.727273,9 -52.0000005,0 z"
       id="rect3765"
       inkscape:connector-curvature="0"
       sodipodi:nodetypes="ccccc" />
    <rect
       style="fill:#e9c6af;fill-opacity:0.99186994;stroke:#280000;stroke-width:0.60000002;stroke-linejoin:bevel;stroke-miterlimit:4;stroke-opacity:1;stroke-dasharray:none"
       id="rect3770"
       width="9"
       height="15"
       x="26"
       y="49" />
    <rect
       style="fill:#ffeeaa;fill-opacity:0.99186993999999995;stroke:#650000;stroke-opacity:1;stroke-width:1.2;stroke-miterlimit:4;stroke-dasharray:none;stroke-linejoin:bevel"
       id="rect3772"
       width="9"
       height="13"
       x="18"
       y="35" />
    <rect
       style="fill:#ffeeaa;fill-opacity:0.99186993999999995;stroke:#650000;stroke-opacity:1;stroke-width:1.2;stroke-miterlimit:4;stroke-dasharray:none;stroke-linejoin:bevel"
       id="rect3772-1"
       width="9"
       height="13"
       x="35"
       y="35" />
    <path
       style="fill:#650000;fill-opacity:1;stroke:#650000;stroke-opacity:1"
       d="m 47,54 c 15,0 16,0 16,0 l 0,0 0,0"
       id="path3811"
       inkscape:connector-curvature="0"
       sodipodi:nodetypes="cccc" />
    <path
       style="fill:#803300;stroke:#650000;stroke-width:1px;stroke-linecap:butt;stroke-linejoin:miter;stroke-opacity:1"
       d="m 50,54 c 0,10 0,10 0,10 l 0,0 0,0"
       id="path3813"
       inkscape:connector-curvature="0" />
    <path
       style="fill:#803300;stroke:#650000;stroke-width:1px;stroke-linecap:butt;stroke-linejoin:miter;stroke-opacity:1"
       d="m 52,54 c 0,10 0,10 0,10 l 0,0 0,0"
       id="path3813-0"
       inkscape:connector-curvature="0" />
    <path
       style="fill:#803300;stroke:#650000;stroke-width:1px;stroke-linecap:butt;stroke-linejoin:miter;stroke-opacity:1"
       d="m 54,54 c 0,10 0,10 0,10 l 0,0 0,0"
       id="path3813-2"
       inkscape:connector-curvature="0" />
    <path
       style="fill:#803300;stroke:#650000;stroke-width:1px;stroke-linecap:butt;stroke-linejoin:miter;stroke-opacity:1"
       d="m 48,54 c 0,10 0,10 0,10 l 0,0 0,0"
       id="path3813-9"
       inkscape:connector-curvature="0" />
    <path
       style="fill:#803300;stroke:#650000;stroke-width:1px;stroke-linecap:butt;stroke-linejoin:miter;stroke-opacity:1"
       d="m 56,54 c 0,10 0,10 0,10 l 0,0 0,0"
       id="path3813-2-0"
       inkscape:connector-curvature="0" />
    <path
       style="fill:#803300;stroke:#650000;stroke-width:1px;stroke-linecap:butt;stroke-linejoin:miter;stroke-opacity:1"
       d="m 58,54 c 0,10 0,10 0,10 l 0,0 0,0"
       id="path3813-2-0-3"
       inkscape:connector-curvature="0" />
    <path
       style="fill:#803300;stroke:#650000;stroke-width:1px;stroke-linecap:butt;stroke-linejoin:miter;stroke-opacity:1"
       d="m 60,54 c 0,10 0,10 0,10 l 0,0 0,0"
       id="path3813-2-0-3-3"
       inkscape:connector-curvature="0" />
    <path
       style="fill:#803300;stroke:#650000;stroke-width:1px;stroke-linecap:butt;stroke-linejoin:miter;stroke-opacity:1"
       d="m 62,54 c 0,10 0,10 0,10 l 0,0 0,0"
       id="path3813-2-0-3-3-1"
       inkscape:connector-curvature="0" />
  </g>
</svg>
