<?xml version="1.0" encoding="UTF-8" standalone="no"?>
<!-- Created with Inkscape (http://www.inkscape.org/) -->

<svg
   xmlns:dc="http://purl.org/dc/elements/1.1/"
   xmlns:cc="http://creativecommons.org/ns#"
   xmlns:rdf="http://www.w3.org/1999/02/22-rdf-syntax-ns#"
   xmlns:svg="http://www.w3.org/2000/svg"
   xmlns="http://www.w3.org/2000/svg"
   xmlns:sodipodi="http://sodipodi.sourceforge.net/DTD/sodipodi-0.dtd"
   xmlns:inkscape="http://www.inkscape.org/namespaces/inkscape"
   width="64px"
   height="64px"
   id="svg5440"
   version="1.1"
   inkscape:version="0.48.3.1 r9886"
   sodipodi:docname="New document 27">
  <defs
     id="defs5442">
    <inkscape:path-effect
       effect="spiro"
       id="path-effect5525"
       is_visible="true" />
  </defs>
  <sodipodi:namedview
     id="base"
     pagecolor="#ffffff"
     bordercolor="#666666"
     borderopacity="1.0"
     inkscape:pageopacity="0.0"
     inkscape:pageshadow="2"
     inkscape:zoom="15.556349"
     inkscape:cx="12.553765"
     inkscape:cy="20.73458"
     inkscape:current-layer="layer1"
     showgrid="true"
     inkscape:document-units="px"
     inkscape:grid-bbox="true"
     inkscape:window-width="1916"
     inkscape:window-height="1041"
     inkscape:window-x="0"
     inkscape:window-y="18"
     inkscape:window-maximized="0" />
  <metadata
     id="metadata5445">
    <rdf:RDF>
      <cc:Work
         rdf:about="">
        <dc:format>image/svg+xml</dc:format>
        <dc:type
           rdf:resource="http://purl.org/dc/dcmitype/StillImage" />
        <dc:title></dc:title>
      </cc:Work>
    </rdf:RDF>
  </metadata>
  <g
     id="layer1"
     inkscape:label="Layer 1"
     inkscape:groupmode="layer">
    <path
       style="fill:#502d16;stroke:#702d21;stroke-width:0.20962727;stroke-linecap:butt;stroke-linejoin:miter;stroke-miterlimit:4;stroke-opacity:1;stroke-dasharray:none"
       d="m 26.185568,63.255832 c 3.924298,-0.184829 2.796286,-3.166472 2.796286,-3.166472 l 3.053416,0.03214 c 0,0 -0.544148,2.726456 1.799908,2.976142 3.250956,0.346289 -7.615372,0.174438 -7.64961,0.158189 z"
       id="path4865"
       inkscape:connector-curvature="0"
       sodipodi:nodetypes="cccsc" />
    <path
       style="fill:#008000;stroke:#008b00;stroke-width:1;stroke-linecap:butt;stroke-linejoin:miter;stroke-opacity:1;stroke-miterlimit:4;stroke-dasharray:none"
       d="m 44.997704,59.564512 c -0.633583,0.170081 -1.278211,0.299006 -1.928473,0.385695 -1.298384,0.173092 -2.616239,0.177259 -3.921228,0.06428 -0.40786,-0.03531 -0.814638,-0.08201 -1.221367,-0.128565 -0.961998,-0.110124 -1.925155,-0.219616 -2.892709,-0.25713 -0.813742,-0.03155 -1.628469,-0.0121 -2.442733,0 -0.83721,0.01244 -1.677138,0.0173 -2.507015,0.128565 -0.150172,0.02013 -0.29986,0.04374 -0.449977,0.06428 -0.213412,0.02921 -0.42776,0.05224 -0.642824,0.06428 -1.053275,0.05898 -2.100822,-0.145639 -3.149839,-0.25713 -1.15211,-0.122448 -2.314675,-0.132681 -3.471252,-0.06428 -1.157292,0.06844 -2.312158,0.215471 -3.471251,0.192847 -0.128575,-0.0025 -0.257292,-0.0071 -0.385695,0 -0.151432,0.0084 -0.301574,0.033 -0.449977,0.06428 -0.325558,0.06862 -0.643354,0.169202 -0.964236,0.257129 -0.23891,0.06547 -0.485327,0.124431 -0.73196,0.101282 -0.123316,-0.01158 -0.245519,-0.04414 -0.354147,-0.103648 -0.108628,-0.05951 -0.20328,-0.14671 -0.263824,-0.254763 -0.05463,-0.09749 -0.08046,-0.210198 -0.07859,-0.321938 0.0019,-0.11174 0.03101,-0.2224 0.08004,-0.322826 0.09806,-0.200852 0.272651,-0.356803 0.467475,-0.466352 0.389648,-0.219098 0.852415,-0.263742 1.2667,-0.431663 0.249128,-0.100978 0.477829,-0.245363 0.707107,-0.385694 0.482956,-0.295596 0.975016,-0.576573 1.478496,-0.835672 0.364429,-0.187541 0.747658,-0.366983 1.157084,-0.385695 0.10704,-0.0049 0.214269,0.0014 0.321412,0 0.454987,-0.0058 0.897097,-0.14826 1.349931,-0.192847 0.417655,-0.04112 0.838303,0.0015 1.257319,0.02498 0.419017,0.0235 0.846435,0.02696 1.249696,-0.08926 0.3748,-0.108018 0.712115,-0.314482 1.049585,-0.510077 0.33747,-0.195595 0.687801,-0.385326 1.071735,-0.45416 0.149169,-0.02674 0.301331,-0.03477 0.449977,-0.06428 0.233288,-0.04632 0.452525,-0.144372 0.671307,-0.237665 0.218782,-0.09329 0.442546,-0.183402 0.678625,-0.212312 0.129894,-0.01591 0.264989,-0.01372 0.385694,-0.06428 0.12756,-0.05343 0.224037,-0.159361 0.330426,-0.247719 0.05319,-0.04418 0.11022,-0.08478 0.173938,-0.111643 0.06372,-0.02686 0.13484,-0.0394 0.202743,-0.02633 0.02946,0.0057 0.05843,0.0159 0.08843,0.01557 0.015,-1.67e-4 0.03012,-0.003 0.04357,-0.0097 0.01345,-0.0066 0.02511,-0.01715 0.03234,-0.03029 0.0072,-0.01314 0.0099,-0.0288 0.0071,-0.04355 -0.0028,-0.01474 -0.01088,-0.02832 -0.02216,-0.03822 -0.01128,-0.0099 -0.02549,-0.01608 -0.04017,-0.01917 -0.01468,-0.0031 -0.0298,-0.0032 -0.0448,-0.0032 -0.08571,0 -0.171419,0 -0.257129,0 -0.364267,0 -0.728535,0 -1.092802,0 -0.320249,0 -0.642293,0.01161 -0.955456,0.0786 -0.313162,0.06699 -0.613601,0.182771 -0.908734,0.307092 -0.575906,0.242594 -1.142649,0.509882 -1.735626,0.707107 -0.664036,0.220859 -1.358041,0.352143 -2.057038,0.385695 -0.192715,0.0093 -0.385925,0.01111 -0.578542,0 -0.446188,-0.02573 -0.885905,-0.120748 -1.331639,-0.153411 -0.445734,-0.03266 -0.91241,0.0022 -1.303941,0.217691 -0.133129,0.07328 -0.254517,0.165788 -0.381372,0.249461 -0.126855,0.08367 -0.261807,0.159603 -0.409784,0.194187 -0.07399,0.01729 -0.150788,0.02396 -0.226314,0.01564 -0.07553,-0.0083 -0.14977,-0.03187 -0.214255,-0.07206 -0.06448,-0.04019 -0.118926,-0.09731 -0.152489,-0.165474 -0.03356,-0.06817 -0.0456,-0.147393 -0.03,-0.221757 0.01305,-0.06221 0.04483,-0.119626 0.08644,-0.16768 0.0416,-0.04805 0.09281,-0.08712 0.147364,-0.119741 0.109104,-0.06524 0.231284,-0.105212 0.34474,-0.162556 0.146436,-0.07401 0.276516,-0.175971 0.40915,-0.27256 0.132635,-0.09659 0.270965,-0.18951 0.426521,-0.241699 0.136182,-0.04569 0.280745,-0.05856 0.423116,-0.07763 0.142371,-0.01906 0.28689,-0.04564 0.412556,-0.115221 0.161678,-0.08952 0.281881,-0.244622 0.449977,-0.321412 0.06169,-0.02818 0.127875,-0.04482 0.192847,-0.06428 0.248602,-0.07445 0.482546,-0.191344 0.707107,-0.321412 0.449016,-0.260074 0.869053,-0.576428 1.349931,-0.77139 0.718823,-0.291432 1.528546,-0.293394 2.249885,-0.578542 0.633754,-0.250525 1.168585,-0.707649 1.799909,-0.964236 0.217166,-0.08826 0.44813,-0.154161 0.636362,-0.293876 0.09412,-0.06986 0.176217,-0.158385 0.226989,-0.264026 0.05077,-0.105641 0.06842,-0.229245 0.0366,-0.342052 -0.03599,-0.127585 -0.130926,-0.231158 -0.237868,-0.309494 -0.106942,-0.07834 -0.22742,-0.13587 -0.340674,-0.204766 -0.264411,-0.160849 -0.490533,-0.384239 -0.771389,-0.514259 -0.292203,-0.135273 -0.627823,-0.159667 -0.945614,-0.1078 -0.317792,0.05187 -0.619796,0.176576 -0.903879,0.328162 -0.568167,0.303171 -1.080216,0.718314 -1.686041,0.936722 -0.652786,0.235338 -1.369814,0.224673 -2.057038,0.128565 -0.281283,-0.03934 -0.563638,-0.09261 -0.847105,-0.0749 -0.141734,0.0089 -0.283132,0.03578 -0.414613,0.08944 -0.13148,0.05366 -0.252935,0.13476 -0.345343,0.242591 -0.03618,0.04222 -0.06796,0.08848 -0.108653,0.12637 -0.02035,0.01894 -0.04292,0.03572 -0.06798,0.04776 -0.02506,0.01204 -0.0527,0.01922 -0.0805,0.01872 -0.03972,-7.21e-4 -0.07859,-0.0175 -0.107756,-0.04448 -0.02917,-0.02698 -0.04872,-0.06372 -0.05682,-0.102618 -0.0081,-0.0389 -0.005,-0.0798 0.0069,-0.117701 0.01191,-0.0379 0.03246,-0.07284 0.05821,-0.103096 0.05151,-0.06051 0.122485,-0.101456 0.195921,-0.131809 0.07344,-0.03035 0.150421,-0.05121 0.224924,-0.07884 0.20725,-0.07686 0.391052,-0.204329 0.578542,-0.321412 0.343113,-0.214265 0.706521,-0.397972 1.028519,-0.642825 0.157304,-0.119616 0.303559,-0.252974 0.449977,-0.385694 0.553449,-0.501671 1.114824,-0.998782 1.735626,-1.414214 0.923796,-0.618192 1.960173,-1.043274 2.951246,-1.546599 0.991073,-0.503325 1.963929,-1.107632 2.641326,-1.988935 0.120687,-0.157015 0.233025,-0.323838 0.385694,-0.449977 0.258612,-0.213672 0.602404,-0.287161 0.901483,-0.439108 0.149539,-0.07597 0.29116,-0.174612 0.391314,-0.30916 0.05008,-0.06727 0.08922,-0.143098 0.111328,-0.223999 0.0221,-0.0809 0.02689,-0.166933 0.01009,-0.249099 -0.01823,-0.08915 -0.06168,-0.172479 -0.121338,-0.241186 -0.05966,-0.06871 -0.135195,-0.122968 -0.217701,-0.161339 -0.165013,-0.07674 -0.354146,-0.08917 -0.534667,-0.06613 -0.36104,0.04608 -0.694199,0.22616 -1.054767,0.275805 -0.299336,0.04121 -0.602543,-0.0093 -0.90261,-0.04477 -0.300067,-0.0355 -0.612026,-0.05483 -0.897298,0.04477 -0.108976,0.03805 -0.211678,0.09276 -0.321412,0.128564 -0.164707,0.05374 -0.34012,0.06334 -0.513228,0.07044 -0.173107,0.0071 -0.348188,0.01238 -0.515291,0.05813 -0.178077,0.04875 -0.34162,0.142373 -0.486778,0.256467 -0.145158,0.114094 -0.272986,0.248585 -0.395256,0.386928 -0.244538,0.276684 -0.47538,0.576393 -0.78931,0.770819 -0.203788,0.126212 -0.434615,0.202634 -0.642824,0.321412 -0.34662,0.197737 -0.619473,0.506152 -0.964237,0.707107 -0.17713,0.103245 -0.374112,0.177238 -0.578541,0.192847 -0.08551,0.0065 -0.171421,0.0028 -0.25713,0 -0.235752,-0.0078 -0.47283,-0.0095 -0.705274,-0.04959 -0.232444,-0.04013 -0.46291,-0.121462 -0.644657,-0.271823 -0.138563,-0.114634 -0.244762,-0.266901 -0.309782,-0.434571 -0.06502,-0.16767 -0.08926,-0.350327 -0.07591,-0.529666 0.0199,-0.267412 0.12249,-0.524914 0.271759,-0.747679 0.149268,-0.222764 0.344031,-0.412328 0.555999,-0.576568 0.423936,-0.32848 0.915611,-0.557959 1.357845,-0.861356 0.307899,-0.211236 0.590257,-0.457216 0.889099,-0.681081 0.298842,-0.223865 0.619018,-0.427884 0.975091,-0.540285 0.360021,-0.113647 0.742923,-0.129493 1.120445,-0.132337 0.377522,-0.0028 0.757847,0.0062 1.129441,-0.06051 0.525898,-0.0944 1.023157,-0.343026 1.414214,-0.707106 0.327914,-0.09253 0.622099,-0.300234 0.819041,-0.578269 0.196942,-0.278035 0.295272,-0.624469 0.273762,-0.964509 -0.01226,-0.193771 -0.06195,-0.384397 -0.06428,-0.578542 -0.0016,-0.131154 0.01853,-0.261687 0.02069,-0.392832 0.0022,-0.131146 -0.01537,-0.267388 -0.08497,-0.378557 -0.04222,-0.06743 -0.102329,-0.122973 -0.170847,-0.163414 -0.06852,-0.04044 -0.145289,-0.06605 -0.223783,-0.07904 -0.156987,-0.02599 -0.318224,-0.002 -0.472511,0.03694 -0.154287,0.03894 -0.304656,0.09273 -0.459862,0.127821 -0.155207,0.03509 -0.318288,0.05102 -0.472905,0.01342 -0.112303,-0.02731 -0.215774,-0.08168 -0.321413,-0.128565 -0.293362,-0.130205 -0.612329,-0.204918 -0.93327,-0.208318 -0.32094,-0.0034 -0.643584,0.06531 -0.93092,0.208318 -0.25029,0.124573 -0.469722,0.302288 -0.707107,0.449977 -0.734236,0.456805 -1.633909,0.62321 -2.314168,1.157084 -0.274514,0.215442 -0.503314,0.483703 -0.771389,0.707107 -0.523767,0.436489 -1.18743,0.688621 -1.86419,0.771389 -0.08549,0.01046 -0.172954,0.01825 -0.25713,0 -0.0786,-0.01704 -0.151602,-0.05664 -0.211859,-0.109911 -0.06026,-0.05327 -0.108014,-0.119918 -0.143312,-0.192188 -0.07059,-0.144539 -0.09107,-0.308476 -0.09481,-0.46929 -0.01738,-0.747763 0.313217,-1.479042 0.817734,-2.031232 0.504516,-0.552191 1.171678,-0.936837 1.873156,-1.196413 1.402956,-0.519151 2.936372,-0.55927 4.380178,-0.950713 0.307879,-0.08347 0.612418,-0.183281 0.899954,-0.321412 1.074675,-0.516268 1.824212,-1.51641 2.764144,-2.249886 0.159271,-0.124287 0.325056,-0.241729 0.467277,-0.385214 0.142221,-0.143484 0.261542,-0.31725 0.304113,-0.51474 0.04784,-0.221916 -0.0074,-0.460572 -0.133334,-0.649447 -0.125943,-0.188874 -0.318632,-0.328845 -0.531447,-0.40787 -0.212816,-0.07902 -0.444888,-0.09917 -0.670805,-0.07689 -0.225917,0.02229 -0.446261,0.08599 -0.65717,0.169969 -0.33622,0.133877 -0.649307,0.318673 -0.972008,0.482476 -0.3227,0.163803 -0.661613,0.308591 -1.020747,0.353195 -0.150619,0.01871 -0.304848,0.01985 -0.449977,0.06428 -0.171394,0.05247 -0.318534,0.161577 -0.469083,0.258857 -0.15055,0.09728 -0.315965,0.186684 -0.495154,0.19112 -0.08666,0.0021 -0.172376,-0.01582 -0.258538,-0.0253 -0.08616,-0.0095 -0.176487,-0.0099 -0.255721,0.0253 -0.04252,0.01886 -0.0803,0.04733 -0.123162,0.06539 -0.02143,0.009 -0.04423,0.01542 -0.06747,0.01613 -0.02324,7.05e-4 -0.04702,-0.0045 -0.0665,-0.01724 -0.01979,-0.0129 -0.03436,-0.03305 -0.04238,-0.05527 -0.008,-0.02222 -0.0097,-0.04642 -0.0071,-0.06989 0.0054,-0.04694 0.02768,-0.09002 0.04943,-0.131964 0.285089,-0.549784 0.545418,-1.117266 0.914393,-1.614654 0.368976,-0.497388 0.865013,-0.928097 1.464057,-1.085209 0.272806,-0.07155 0.557139,-0.08427 0.835672,-0.128564 0.280187,-0.04455 0.554914,-0.121144 0.836417,-0.156441 0.281504,-0.0353 0.577335,-0.02674 0.834926,0.09216 0.130681,0.06032 0.248988,0.147822 0.385694,0.192847 0.09418,0.03102 0.19378,0.04074 0.292065,0.05386 0.09829,0.01312 0.197795,0.03035 0.286477,0.07471 0.123086,0.06156 0.215039,0.169809 0.321413,0.25713 0.151078,0.124018 0.332753,0.206349 0.519776,0.26316 0.187023,0.05681 0.380423,0.08923 0.573025,0.122535 1.393523,0.240978 2.841006,0.565754 3.921228,1.478496 0.220223,0.186079 0.421406,0.393887 0.642825,0.578542 0.414975,0.346072 0.899258,0.607708 1.414213,0.771389 0.71389,0.226914 1.478809,0.266123 2.185603,0.514259 0.217778,0.07646 0.428224,0.172164 0.642825,0.25713 0.668168,0.264544 1.372678,0.42354 2.057037,0.642824 0.381724,0.122313 0.760348,0.264191 1.157084,0.321412 0.197554,0.02849 0.397737,0.03566 0.595201,0.06477 0.197464,0.02911 0.395627,0.08191 0.561883,0.19236 0.238366,0.158349 0.392445,0.429401 0.429993,0.713096 0.03755,0.283695 -0.03614,0.576767 -0.182991,0.822386 -0.146847,0.245619 -0.363765,0.445249 -0.608636,0.593338 -0.244872,0.148089 -0.517367,0.246368 -0.79545,0.313913 -0.665908,0.161746 -1.364172,0.149878 -2.042761,0.05443 -0.67859,-0.09545 -1.342533,-0.272682 -2.007032,-0.440122 -1.419193,-0.357606 -2.852464,-0.672758 -4.306923,-0.835672 -0.364537,-0.04083 -0.730357,-0.0721 -1.092802,-0.128564 -0.437115,-0.0681 -0.868915,-0.172951 -1.285648,-0.321413 -0.104051,-0.03707 -0.207397,-0.07692 -0.31452,-0.103852 -0.107123,-0.02693 -0.219015,-0.04072 -0.328305,-0.02471 -0.113455,0.01662 -0.221605,0.06557 -0.310865,0.137551 -0.08926,0.07198 -0.159652,0.166606 -0.20569,0.271624 -0.09208,0.210035 -0.08365,0.457204 0.0019,0.66997 0.08558,0.212767 0.243806,0.39193 0.431853,0.523198 0.188047,0.131268 0.405098,0.216746 0.627466,0.272832 0.444735,0.112172 0.91011,0.109756 1.361991,0.188338 0.225941,0.03929 0.449893,0.09945 0.655423,0.20119 0.20553,0.101738 0.392628,0.246806 0.523456,0.435159 0.148037,0.213129 0.217416,0.46936 0.321412,0.707107 0.260916,0.596486 0.755473,1.084427 1.349931,1.349931 0.105375,0.04706 0.213602,0.08739 0.321413,0.128565 0.977848,0.37347 1.926379,0.81903 2.892709,1.221366 0.496234,0.206609 0.997867,0.402135 1.478496,0.642824 1.003281,0.502422 1.916414,1.210208 2.571298,2.121321 0.08893,0.123717 0.173433,0.251762 0.234299,0.391437 0.06087,0.139674 0.09752,0.29223 0.08711,0.444234 -0.0093,0.136537 -0.05667,0.269246 -0.128565,0.385695 -0.114045,0.184711 -0.287778,0.327546 -0.479544,0.429281 -0.191766,0.101735 -0.401763,0.16461 -0.613257,0.213543 -0.698551,0.161621 -1.445007,0.173826 -2.121321,-0.06428 -0.345819,-0.121751 -0.67041,-0.307132 -1.028519,-0.385695 -0.325709,-0.07146 -0.663644,-0.0511 -0.996482,-0.03082 -0.332838,0.02028 -0.670948,0.03972 -0.996273,-0.03346 -0.238523,-0.05366 -0.468488,-0.156737 -0.712839,-0.164767 -0.122176,-0.004 -0.247318,0.01715 -0.353916,0.07698 -0.106598,0.05983 -0.192823,0.161202 -0.218894,0.280631 -0.01379,0.06319 -0.01073,0.129065 0,0.192847 0.02378,0.14141 0.08468,0.274948 0.165099,0.393669 0.08042,0.11872 0.180089,0.223333 0.286047,0.319952 0.211917,0.193237 0.451384,0.357445 0.641655,0.572028 0.13122,0.147986 0.237812,0.318642 0.385695,0.449977 0.173513,0.154098 0.39385,0.245189 0.578542,0.385695 0.254088,0.193299 0.428894,0.470126 0.642824,0.707106 0.204759,0.226821 0.446955,0.418245 0.707107,0.578542 0.310198,0.191134 0.645205,0.338266 0.964237,0.51426 0.417632,0.230387 0.807991,0.510663 1.157083,0.835671 0.05764,0.05366 0.11444,0.108861 0.161168,0.172246 0.04673,0.06339 0.08329,0.135727 0.09596,0.213449 0.01381,0.08474 -0.0012,0.171284 0,0.25713 0.0013,0.09735 0.02338,0.193036 0.04208,0.288582 0.0187,0.09555 0.03417,0.193341 0.0222,0.28996 -0.02074,0.167286 -0.123728,0.316642 -0.25553,0.421726 -0.131802,0.105085 -0.290815,0.170403 -0.451577,0.221098 -0.673519,0.212387 -1.400347,0.187065 -2.098332,0.07958 -0.697984,-0.107485 -1.381903,-0.294406 -2.080026,-0.400991 -1.019295,-0.15562 -2.055896,-0.138271 -3.085557,-0.192847 -0.268442,-0.01423 -0.543311,-0.03267 -0.801039,0.04375 -0.128863,0.03821 -0.251877,0.100611 -0.350934,0.19146 -0.09906,0.09085 -0.173134,0.211233 -0.197958,0.34333 -0.02455,0.130643 -7.7e-5,0.268133 0.05779,0.387807 0.05786,0.119674 0.14783,0.222139 0.251993,0.304725 0.208324,0.165172 0.467095,0.250216 0.718738,0.335987 1.097037,0.37392 2.169421,0.820241 3.278404,1.157084 0.656534,0.199416 1.324186,0.359928 1.992755,0.51426 0.928011,0.214222 1.875392,0.423147 2.699862,0.899954 0.542127,0.313522 1.017378,0.736888 1.414214,1.221366 0.09297,0.113501 0.183031,0.231664 0.298782,0.321816 0.05787,0.04507 0.122019,0.08278 0.191461,0.106426 0.06944,0.02365 0.144366,0.03293 0.216864,0.02173 0.061,-0.0094 0.120146,-0.03311 0.181872,-0.03266 0.03086,2.25e-4 0.06225,0.0068 0.08842,0.0232 0.01309,0.0082 0.02475,0.01874 0.0337,0.03131 0.009,0.01257 0.01516,0.02717 0.01742,0.04243 0.0025,0.01694 1.19e-4,0.03446 -0.006,0.05044 -0.0062,0.01598 -0.01602,0.03041 -0.02806,0.04259 -0.02407,0.02435 -0.05622,0.03932 -0.08913,0.04877 -0.03291,0.0095 -0.06703,0.01384 -0.100698,0.02007 -0.03367,0.0062 -0.06746,0.01451 -0.09748,0.03097 -0.03186,0.01747 -0.05858,0.0439 -0.07735,0.07502 -0.01876,0.03112 -0.02963,0.06681 -0.03249,0.103032 -0.0057,0.07245 0.02078,0.145402 0.06531,0.20283 0.04453,0.05743 0.10604,0.100154 0.17226,0.130088 0.06622,0.02993 0.137295,0.04768 0.208663,0.06139 0.142736,0.02741 0.291681,0.0403 0.42089,0.10686 0.06461,0.03328 0.123285,0.0803 0.16277,0.141311 0.03949,0.06101 0.05849,0.136735 0.04418,0.207985 -0.01168,0.05815 -0.04424,0.11034 -0.0572,0.168217 -0.0065,0.02894 -0.0078,0.05963 9.84e-4,0.08794 0.0044,0.01416 0.01136,0.02758 0.02088,0.03895 0.0095,0.01137 0.02163,0.02065 0.03534,0.0263 0.02099,0.0086 0.04484,0.0084 0.06693,0.0032 0.02209,-0.0053 0.04273,-0.01528 0.06277,-0.02594 0.02004,-0.01066 0.03978,-0.02207 0.0609,-0.03041 0.02112,-0.0083 0.04395,-0.01353 0.06653,-0.01113 0.019,0.002 0.03726,0.0094 0.05295,0.02034 0.01568,0.01091 0.02883,0.02526 0.03927,0.04126 0.02088,0.032 0.03077,0.06993 0.03684,0.107653 0.0061,0.03773 0.0087,0.07602 0.01662,0.113392 0.0079,0.03738 0.02176,0.07452 0.04717,0.103053 0.0202,0.02268 0.04708,0.03925 0.06428,0.06428 0.01216,0.0177 0.01882,0.03904 0.01941,0.06051 5.91e-4,0.02147 -0.0048,0.043 -0.01503,0.0619 -0.02041,0.03779 -0.05974,0.06379 -0.101956,0.07169 -0.04222,0.0079 -0.08672,-0.0013 -0.124451,-0.02188 -0.03773,-0.02053 -0.06894,-0.05183 -0.09304,-0.08738 -0.0482,-0.07111 -0.06805,-0.156998 -0.09037,-0.239952 -0.02232,-0.08295 -0.0498,-0.168172 -0.108829,-0.230584 -0.04002,-0.04231 -0.09337,-0.07183 -0.150484,-0.08325 -0.05711,-0.01142 -0.117712,-0.0047 -0.170928,0.01897 -0.05456,0.02427 -0.101078,0.06624 -0.130795,0.118041 -0.02972,0.0518 -0.04248,0.113139 -0.0359,0.17249 0.0066,0.05935 0.0325,0.116401 0.07285,0.160419 0.04035,0.04402 0.09494,0.07478 0.153497,0.08649 0.05856,0.01171 0.120775,0.0043 0.174953,-0.0208 0.05418,-0.02511 0.100033,-0.06781 0.12894,-0.120064 0.02891,-0.05225 0.04072,-0.113787 0.0332,-0.173028 -0.0075,-0.05924 -0.0343,-0.115881 -0.07534,-0.159265"
       id="path5523"
       inkscape:path-effect="#path-effect5525"
       inkscape:original-d="m 44.997704,59.564512 c -0.610169,0.300989 -1.281299,0.277832 -1.928473,0.385695 -1.392109,0.232018 -2.526035,0.343321 -3.921228,0.06428 -0.40008,-0.08002 -0.832328,-0.0313 -1.221367,-0.128565 -0.892684,-0.223171 -1.958569,-0.25713 -2.892709,-0.25713 -0.55987,0 -2.004389,0.146115 -2.442733,0 -0.633327,-0.211109 -1.937433,-0.156226 -2.507015,0.128565 -0.12912,0.06456 -0.31387,-0.0038 -0.449977,0.06428 -0.180897,0.09045 -0.454786,-0.02974 -0.642824,0.06428 -0.257316,0.128658 -2.846905,-0.156152 -3.149839,-0.25713 -0.227572,-0.07586 -3.050662,-0.06428 -3.471252,-0.06428 -1.142243,0 -2.382061,-0.07945 -3.471251,0.192847 -0.10234,0.02558 -0.290505,-0.0476 -0.385695,0 -0.0749,0.03745 -0.408122,0.02243 -0.449977,0.06428 -0.170355,0.170355 -0.646332,0.257129 -0.964236,0.257129 -0.151657,0 -1.349931,-0.195171 -1.349931,-0.257129 0,-0.04775 1.572866,-1.380019 1.735625,-1.542779 0.204044,-0.204043 0.469624,-0.266953 0.707107,-0.385694 0.510774,-0.255387 0.972029,-0.582438 1.478496,-0.835672 0.35746,-0.17873 0.798086,-0.206196 1.157084,-0.385695 0.08571,-0.04286 0.235702,0.04286 0.321412,0 0.393587,-0.196793 0.959466,0.0024 1.349931,-0.192847 0.2997,-0.14985 2.032333,0.09394 2.507015,-0.06428 0.720366,-0.240122 1.460064,-0.633609 2.12132,-0.964237 0.126744,-0.06337 0.326086,-0.0023 0.449977,-0.06428 0.421692,-0.210846 0.929165,-0.239594 1.349932,-0.449977 0.10645,-0.05323 0.277605,-0.01024 0.385694,-0.06428 0.171118,-0.08556 0.605422,-0.28401 0.707107,-0.385694 0.03388,-0.03388 0.01637,-0.128565 0.06428,-0.128565 0.03376,0 -0.16146,0 -0.257129,0 -0.364267,0 -0.728535,0 -1.092802,0 -0.906563,0 -1.066402,0.119765 -1.86419,0.385694 -0.571917,0.190639 -1.106184,0.581219 -1.735626,0.707107 -0.68214,0.136428 -1.373358,0.248959 -2.057038,0.385695 -0.182558,0.03651 -0.397913,-0.04516 -0.578542,0 -0.77937,0.194842 -1.820432,0.335998 -2.63558,0.06428 -0.181017,-0.06034 -1.339925,0.07429 -1.414213,0 -0.12878,-0.128779 0.528368,-0.416528 0.578542,-0.449977 0.263797,-0.175865 0.56106,-0.422722 0.835671,-0.514259 0.26163,-0.08721 0.57331,-0.105393 0.835672,-0.192848 0.162178,-0.05406 0.287799,-0.267353 0.449977,-0.321412 0.238302,-0.07943 0.04209,0.08647 0.192847,-0.06428 0.215962,-0.215962 0.45856,-0.197139 0.707107,-0.321412 0.454167,-0.227084 0.859845,-0.526346 1.349931,-0.77139 0.67063,-0.335315 1.557392,-0.34771 2.249885,-0.578542 0.644733,-0.21491 1.214734,-0.671649 1.799909,-0.964236 0.266948,-0.133474 1.079534,-0.540793 0.899954,-0.899954 -0.09173,-0.183464 -0.418094,-0.434036 -0.578542,-0.51426 -0.287722,-0.143861 -0.453361,-0.40825 -0.771389,-0.514259 -0.645258,-0.215086 -2.93617,0.857402 -3.535534,1.157084 -0.429704,0.214852 -1.707246,-0.04633 -2.057038,0.128565 -0.403877,0.201938 -1.320083,0.11364 -1.607061,0.257129 -0.07455,0.03728 -0.17242,0.192848 -0.25713,0.192848 -0.18708,0 0.313552,-0.573302 0.321412,-0.578542 0.175328,-0.116885 0.391707,-0.227995 0.578542,-0.321412 0.366861,-0.183431 0.678011,-0.467571 1.028519,-0.642825 0.17273,-0.08637 0.28134,-0.301376 0.449977,-0.385694 0.607608,-0.303804 1.075008,-1.194008 1.735626,-1.414214 2.43723,-0.81241 3.795191,-1.738153 5.592572,-3.535534 0.141023,-0.141023 0.205704,-0.329984 0.385694,-0.449977 0.172482,-0.114988 1.588044,-1.047536 1.414214,-1.221366 -0.378111,-0.378111 -1.464756,-0.192847 -1.928473,-0.192847 -0.567699,0 -1.241451,-0.101538 -1.799908,0 -0.113529,0.02064 -0.207883,0.107923 -0.321412,0.128564 -0.351443,0.0639 -0.721929,-0.02473 -1.028519,0.128565 -0.646625,0.323313 -1.051922,1.001266 -1.671344,1.414214 -0.197792,0.131861 -0.445032,0.189551 -0.642824,0.321412 -0.351877,0.234584 -0.582904,0.516441 -0.964237,0.707107 -0.18863,0.09431 -0.39861,0.102881 -0.578541,0.192847 -0.06857,0.03428 -0.188562,-0.03428 -0.25713,0 -0.285291,0.142646 -1.580556,0.370461 -1.349931,-0.321412 0.243759,-0.731277 -0.965069,-0.67455 -0.385695,-0.964237 0.425001,-0.2125 1.811051,-1.935902 2.185603,-2.185603 0.594722,-0.396481 -0.75007,-2.777798 1.86419,-1.221366 0.422711,0.251667 1.980593,0.07645 2.249886,-0.192847 0.219267,-0.219267 2.646245,-1.939131 1.414214,-0.707106 0.509224,-0.222334 0.909856,-0.993939 1.092803,-1.542778 0.05667,-0.170011 0.0043,-0.441438 -0.06428,-0.578542 -0.0747,-0.14941 0.04171,-0.665392 -0.06428,-0.771389 -0.217406,-0.217406 -1.450673,0.01332 -1.799908,-0.06428 -0.112643,-0.02503 -0.207592,-0.109594 -0.321413,-0.128565 -0.21905,-0.03651 -1.624955,-0.119617 -1.86419,0 -0.247461,0.123731 -0.449329,0.321089 -0.707107,0.449977 -0.793101,0.396551 -1.582062,0.669014 -2.314168,1.157084 -0.285212,0.190142 -0.478204,0.511651 -0.771389,0.707107 -0.620033,0.413356 -1.083775,0.771389 -1.86419,0.771389 -0.03923,0 -0.232083,0.02505 -0.25713,0 -0.162449,-0.162448 -0.351375,-0.475582 -0.449977,-0.771389 -0.73059,-2.19177 5.922774,-3.795594 7.071068,-4.178358 0.302915,-0.100972 0.602739,-0.222341 0.899954,-0.321412 0.536871,-0.178957 2.26698,-1.752721 2.764144,-2.249886 0.269424,-0.269423 0.59709,-0.551354 0.77139,-0.899954 0.44672,-0.893441 -1.577945,-1.047198 -1.992756,-0.964236 -0.734232,0.146846 -1.401984,0.540286 -1.992755,0.835671 -0.123845,0.06192 -0.326133,0.0024 -0.449977,0.06428 -0.327299,0.163649 -0.635378,0.285547 -0.964237,0.449977 -0.108942,0.05447 -0.389764,0 -0.514259,0 -0.06011,0 -0.193531,0.127881 -0.25713,0.06428 -0.0139,-0.0139 -0.01014,-0.236839 0,-0.257129 0.411999,-0.823999 1.419823,-2.38032 2.37845,-2.699863 0.280362,-0.09345 0.547775,-0.07098 0.835672,-0.128564 0.369729,-0.07395 1.319334,-0.240287 1.671343,-0.06428 0.133543,0.06677 0.229216,0.140688 0.385694,0.192847 0.184171,0.06139 0.406423,0.04251 0.578542,0.128565 0.110859,0.05543 0.20025,0.216742 0.321413,0.25713 0.35635,0.118783 0.727722,0.239663 1.092801,0.385695 1.300745,0.520298 2.673069,0.854416 3.921228,1.478496 0.252214,0.126106 0.405309,0.420198 0.642825,0.578542 0.450665,0.300443 0.904435,0.567477 1.414213,0.771389 0.719593,0.287837 1.443806,0.390626 2.185603,0.514259 0.232318,0.03872 0.426052,0.184872 0.642825,0.25713 0.579247,0.193082 1.469344,0.577525 2.057037,0.642824 0.424725,0.04719 0.746915,0.204221 1.157084,0.321412 0.282859,0.08082 0.920307,0.138742 1.157084,0.25713 1.402229,0.701115 -0.257488,2.082895 -1.157084,2.442733 -1.329042,0.531617 -2.728563,-0.09209 -4.049793,-0.385695 -1.430752,-0.317945 -2.872715,-0.533733 -4.306923,-0.835672 -2.275811,-0.479118 0.946564,0.143351 -1.092802,-0.128564 -0.428246,-0.0571 -0.860111,-0.244042 -1.285648,-0.321413 -0.366461,-0.06663 -0.646366,-0.132106 -0.642825,-0.128564 0.829436,0.829435 2.512267,1.782598 3.085557,2.699862 0.124928,0.199884 0.211311,0.486904 0.321412,0.707107 0.175836,0.351672 1.02426,1.105677 1.349931,1.349931 0.173451,0.130087 0.105343,-0.0011 0.321413,0.128565 0.906556,0.543933 1.903454,0.825664 2.892709,1.221366 0.461987,0.184794 1.067742,0.368988 1.478496,0.642824 0.547626,0.365084 2.307276,1.593276 2.571298,2.121321 0.134521,0.269043 0.193967,0.580781 0.321412,0.835671 0.08335,0.166706 -0.0717,0.271971 -0.128565,0.385695 -0.238154,0.476307 -0.549065,0.552201 -1.092801,0.642824 -0.630366,0.105061 -1.505304,0.03839 -2.121321,-0.06428 -0.351395,-0.05857 -0.685894,-0.300039 -1.028519,-0.385695 -0.47419,-0.118547 -1.461286,-0.06428 -1.992755,-0.06428 -0.244553,0 -1.129644,0.03684 -1.285649,0.192847 -0.01702,0.01702 0,0.166378 0,0.192847 0,0.545239 0.660932,0.997736 1.092801,1.285649 0.175618,0.117078 0.249587,0.313869 0.385695,0.449977 0.155774,0.155774 0.421022,0.228175 0.578542,0.385695 0.216648,0.216647 0.391323,0.505905 0.642824,0.707106 0.244342,0.195474 0.500818,0.372253 0.707107,0.578542 0.247334,0.247334 0.674109,0.340183 0.964237,0.51426 0.08559,0.05135 1.143396,0.808297 1.157083,0.835671 0.07609,0.152175 0.159746,0.28831 0.25713,0.385695 0.04077,0.04078 -0.02676,0.203609 0,0.25713 0.05512,0.110241 0.134594,0.437918 0.06428,0.578542 -0.147605,0.295208 -0.432274,0.459602 -0.707107,0.642824 -1.466924,0.977949 -2.719823,-0.0297 -4.178358,-0.321412 -0.998327,-0.199666 -2.05863,-0.398233 -3.085557,-0.192847 -0.388764,0.07775 -1.143444,0.165566 -1.349931,0.578541 -0.184374,0.368747 0.837782,0.837783 1.028519,1.028519 0.857851,0.857851 2.163731,0.878416 3.278404,1.157084 0.655776,0.163944 1.320532,0.402223 1.992755,0.51426 0.925859,0.15431 1.885069,0.492557 2.699862,0.899954 0.358977,0.179488 1.041364,1.034941 1.414214,1.221366 0.245438,0.122719 0.461133,0.32699 0.707107,0.449977 0.06744,0.03372 0.272547,0.01542 0.321412,0.06428 0.0785,0.0785 -0.428276,-0.02088 -0.321412,0.192847 0.122662,0.245324 0.922359,0.777255 0.964236,1.028519 0.01761,0.10568 -0.07576,0.245654 0,0.321412 0.06247,0.06247 0.168782,-0.06428 0.25713,-0.06428 0.163428,0 0.129249,0.322095 0.192847,0.385694 0.02143,0.02143 0.09459,0.06428 0.06428,0.06428 -0.21498,0 -0.30406,-0.280595 -0.51426,-0.385695 -0.09772,-0.04886 -0.430671,-0.06428 -0.321412,-0.06428 0.109259,0 0.214275,0.04285 0.321413,0.06428 z"
       inkscape:connector-curvature="0"
       sodipodi:nodetypes="csscssscscscccsssssccccccccssssssscscsssccssssssssscssscsssssscsssscccssssscsccssssssscssssssccsscccscscsssssssscsssssscssscsssccscssssssssscccsssssssssssscscssssssc" />
  </g>
</svg>
