<?xml version="1.0" encoding="UTF-8" standalone="no"?>
<!-- Created with Inkscape (http://www.inkscape.org/) -->

<svg
   xmlns:dc="http://purl.org/dc/elements/1.1/"
   xmlns:cc="http://creativecommons.org/ns#"
   xmlns:rdf="http://www.w3.org/1999/02/22-rdf-syntax-ns#"
   xmlns:svg="http://www.w3.org/2000/svg"
   xmlns="http://www.w3.org/2000/svg"
   xmlns:sodipodi="http://sodipodi.sourceforge.net/DTD/sodipodi-0.dtd"
   xmlns:inkscape="http://www.inkscape.org/namespaces/inkscape"
   width="64px"
   height="64px"
   id="svg5188"
   version="1.1"
   inkscape:version="0.48.3.1 r9886"
   sodipodi:docname="tree-large.svg"
   inkscape:export-filename="/home/risto/Dropbox/type-war-game/public/images/tree-large.png"
   inkscape:export-xdpi="90.404282"
   inkscape:export-ydpi="90.404282">
  <defs
     id="defs5190">
    <inkscape:path-effect
       effect="spiro"
       id="path-effect5252"
       is_visible="true" />
    <inkscape:path-effect
       effect="spiro"
       id="path-effect5248"
       is_visible="true" />
    <inkscape:path-effect
       effect="spiro"
       id="path-effect5212"
       is_visible="true" />
    <inkscape:path-effect
       effect="spiro"
       id="path-effect5200"
       is_visible="true" />
  </defs>
  <sodipodi:namedview
     id="base"
     pagecolor="#ffffff"
     bordercolor="#666666"
     borderopacity="1.0"
     inkscape:pageopacity="0.0"
     inkscape:pageshadow="2"
     inkscape:zoom="15.556349"
     inkscape:cx="22.833871"
     inkscape:cy="34.516376"
     inkscape:current-layer="layer1"
     showgrid="true"
     inkscape:document-units="px"
     inkscape:grid-bbox="true"
     inkscape:window-width="1916"
     inkscape:window-height="1041"
     inkscape:window-x="0"
     inkscape:window-y="18"
     inkscape:window-maximized="0">
    <inkscape:grid
       type="xygrid"
       id="grid5196" />
  </sodipodi:namedview>
  <metadata
     id="metadata5193">
    <rdf:RDF>
      <cc:Work
         rdf:about="">
        <dc:format>image/svg+xml</dc:format>
        <dc:type
           rdf:resource="http://purl.org/dc/dcmitype/StillImage" />
        <dc:title></dc:title>
      </cc:Work>
    </rdf:RDF>
  </metadata>
  <g
     id="layer1"
     inkscape:label="Layer 1"
     inkscape:groupmode="layer"
     style="display:inline">
    <path
       style="fill:#a05a2c;fill-opacity:1;stroke:#450f00;stroke-width:3.97658110000000020;stroke-linejoin:bevel;stroke-miterlimit:4;stroke-opacity:1;stroke-dasharray:none"
       id="path5797"
       d="m 25.030945,64 c -0.0025,-0.220129 0.01914,-0.438817 0.03924,-0.657626 0.01667,-0.17022 0.02193,-0.341265 0.02466,-0.512223 0.01135,-0.13569 -0.01431,-0.267962 -0.03444,-0.401153 -0.03275,-0.131127 -0.06208,-0.262257 -0.07847,-0.396682 -0.02278,-0.136966 3.05e-4,-0.271919 0.02004,-0.40726 0.01002,-0.134346 0.03968,-0.265249 0.0633,-0.397393 0.02179,-0.128679 0.02632,-0.259358 0.02926,-0.389642 -0.0022,-0.135126 0.02825,-0.267404 0.04535,-0.400719 0.0087,-0.13413 0.02183,-0.266487 0.04519,-0.398789 0.02673,-0.144345 0.08413,-0.279004 0.139962,-0.413292 0.06942,-0.177113 0.132496,-0.356876 0.176574,-0.542467 0.04237,-0.194204 0.08536,-0.388354 0.124479,-0.583289 0.04546,-0.191638 0.109369,-0.376295 0.144434,-0.570719 0.02715,-0.168974 0.03116,-0.340483 0.03326,-0.511343 7.99e-4,-0.13674 -1.5e-4,-0.273483 -6.21e-4,-0.410224 -8.2e-5,-0.157968 0.0011,-0.315933 8.32e-4,-0.473905 -0.01137,-0.151447 -0.03928,-0.300648 -0.0515,-0.452077 -0.01205,-0.189298 -0.01134,-0.379217 -0.01136,-0.56884 0.01651,-0.246504 0.03916,-0.492419 0.05289,-0.739173 0.01173,-0.27088 0.0085,-0.541598 0.03003,-0.811934 0.02276,-0.235022 0.03424,-0.470835 0.04224,-0.706791 0.0074,-0.287312 0.007,-0.574784 0.0073,-0.862179 -0.0019,-0.271106 -0.0017,-0.54219 -0.0012,-0.813301 2.03e-4,-0.293708 -0.02787,-0.586635 -0.0449,-0.879707 -0.02492,-0.263513 -0.0466,-0.5276 -0.08884,-0.788884 -0.03835,-0.230154 -0.04859,-0.463698 -0.05684,-0.696614 -0.0049,-0.223584 -0.0112,-0.447055 0.0097,-0.669884 0.01063,-0.160442 0.04215,-0.315829 0.09288,-0.46758 0.06088,-0.145006 0.099,-0.297688 0.143335,-0.448384 0.0337,-0.132787 0.06084,-0.266595 0.112703,-0.393525 0.04948,-0.115419 0.09265,-0.233276 0.136807,-0.350888 0.04534,-0.131845 0.08788,-0.264607 0.131334,-0.397112 0.05626,-0.151387 0.09599,-0.307813 0.136058,-0.464267 0.05662,-0.17951 0.08668,-0.365649 0.129287,-0.548758 0.0266,-0.14407 0.06592,-0.285111 0.09589,-0.428372 0.03393,-0.129729 0.06602,-0.258944 0.08281,-0.392315 0.0093,-0.133614 0.04079,-0.263864 0.05878,-0.396309 0.0092,-0.133966 0.022,-0.266248 0.04519,-0.398472 0.01382,-0.08651 0.0075,-0.04325 0.01896,-0.129744 0,0 0.854574,-0.433804 0.854574,-0.433804 l 0,0 c -0.0098,0.08982 -0.0042,0.045 -0.01681,0.134437 -0.02247,0.131161 -0.04659,0.26007 -0.04723,0.393986 -0.0147,0.132906 -0.04647,0.262483 -0.05931,0.395103 -0.01282,0.136003 -0.03524,0.270472 -0.07963,0.399826 -0.02598,0.146299 -0.07162,0.287164 -0.09667,0.43366 -0.0449,0.182848 -0.07516,0.368917 -0.128575,0.549505 -0.03836,0.15769 -0.07341,0.316983 -0.133069,0.468014 -0.03712,0.13558 -0.08725,0.266825 -0.127501,0.401361 -0.04168,0.119796 -0.08646,0.237956 -0.13358,0.355437 -0.05478,0.123831 -0.09804,0.24859 -0.119718,0.383928 -0.04415,0.151719 -0.08088,0.306057 -0.14103,0.452288 -0.0514,0.146446 -0.09783,0.292317 -0.105958,0.44959 -0.02778,0.219008 -0.02502,0.438123 -0.01829,0.658733 0.0055,0.22917 0.01516,0.458844 0.0514,0.685431 0.04006,0.265666 0.06118,0.533303 0.0882,0.800662 0.01418,0.294751 0.04675,0.58861 0.04845,0.883715 7.05e-4,0.271403 0.0013,0.542781 -4.2e-4,0.814183 1.61e-4,0.287329 6.05e-4,0.574659 -0.0016,0.861984 -0.0039,0.238179 -0.01802,0.475861 -0.04128,0.712904 -0.02413,0.269167 -0.0263,0.538182 -0.03079,0.808369 -0.01033,0.24491 -0.03332,0.488818 -0.05251,0.733115 0.0013,0.186638 0.0013,0.373435 0.01246,0.559803 0.01182,0.154081 0.03562,0.306353 0.05382,0.45969 -1.71e-4,0.15741 0.0011,0.314808 0.0018,0.472215 3.17e-4,0.137452 9.99e-4,0.274909 -7.1e-5,0.412359 -0.0024,0.175961 -0.0074,0.352187 -0.02939,0.526921 -0.03189,0.195998 -0.08411,0.384182 -0.144345,0.572472 -0.03453,0.196425 -0.08356,0.38997 -0.122992,0.585421 -0.03695,0.190685 -0.101446,0.373165 -0.167611,0.554995 -0.04639,0.132616 -0.113254,0.257171 -0.146145,0.39503 -0.02259,0.131066 -0.04699,0.259864 -0.0475,0.393732 -0.01408,0.131156 -0.04549,0.260239 -0.04961,0.391804 -0.0019,0.134534 -0.0047,0.269441 -0.02302,0.402889 -0.02039,0.13228 -0.0575,0.260923 -0.06432,0.395131 -0.01741,0.128099 -0.05065,0.254759 -0.0311,0.384733 0.01341,0.13376 0.0393,0.264708 0.07683,0.39365 0.01962,0.138403 0.05285,0.275349 0.0406,0.416268 -0.0032,0.173973 -0.0095,0.347917 -0.02476,0.521274 -0.02219,0.214758 -0.05377,0.429624 -0.03821,0.646166 0,0 -0.849798,0.444856 -0.849798,0.444856 z"
       inkscape:connector-curvature="0" />
  </g>
  <g
     inkscape:groupmode="layer"
     id="layer2"
     inkscape:label="Layer"
     style="display:inline">
    <path
       style="fill:#346911;fill-opacity:1;stroke:#00b900;stroke-width:1px;stroke-linecap:butt;stroke-linejoin:miter;stroke-opacity:1;display:inline"
       d="m 21,45 c -0.866883,-0.07997 -1.70642,-0.434227 -2.36854,-0.999451 -0.662119,-0.565224 -1.143727,-1.338772 -1.358733,-2.182367 -0.135771,-0.53271 -0.166835,-1.091893 -0.09091,-1.636364 0.07907,-0.566998 0.271529,-1.111455 0.394049,-1.670675 0.122521,-0.559219 0.171917,-1.157423 -0.03041,-1.692961 -0.2156,-0.570665 -0.686035,-0.998236 -1.090909,-1.454546 -0.603615,-0.680299 -1.083347,-1.459786 -1.636363,-2.181818 -0.177136,-0.231274 -0.362741,-0.45804 -0.504643,-0.712459 -0.141902,-0.254418 -0.239222,-0.542152 -0.22263,-0.832995 0.01816,-0.318254 0.171391,-0.616073 0.370309,-0.865165 0.198918,-0.249093 0.443293,-0.457189 0.677606,-0.67332 0.234314,-0.216131 0.462928,-0.445612 0.619271,-0.723411 0.07817,-0.1389 0.137471,-0.289227 0.166267,-0.44599 0.0288,-0.156763 0.02656,-0.320133 -0.01527,-0.473933 -0.07576,-0.278564 -0.272539,-0.505427 -0.461568,-0.723612 C 15.258494,27.512748 15.065423,27.28117 15,27 c -0.02843,-0.122178 -0.03243,-0.252661 -0.09091,-0.363636 -0.05028,-0.09541 -0.135899,-0.166559 -0.220999,-0.232811 -0.0851,-0.06625 -0.173627,-0.132064 -0.233547,-0.221735 -0.05348,-0.08003 -0.0809,-0.174377 -0.103235,-0.268007 -0.02234,-0.09363 -0.0406,-0.189 -0.07858,-0.277447 -0.04698,-0.109397 -0.122469,-0.204192 -0.2042,-0.290764 -0.08173,-0.08657 -0.170526,-0.166354 -0.250345,-0.254691 -0.329843,-0.36504 -0.48613,-0.850217 -0.634334,-1.31935 -0.148204,-0.469133 -0.306222,-0.954091 -0.638393,-1.317014 -0.08681,-0.09485 -0.184098,-0.179571 -0.272728,-0.272727 -0.2645,-0.278007 -0.447663,-0.628941 -0.545454,-1 -0.124042,-0.470667 -0.113079,-0.965414 -0.08726,-1.451467 0.02582,-0.486053 0.06548,-0.97582 -0.0036,-1.457624 -0.05673,-0.395383 -0.192431,-0.789509 -0.454546,-1.090909 -0.112524,-0.129388 -0.245812,-0.239055 -0.363636,-0.363636 -0.272458,-0.288083 -0.454973,-0.647406 -0.636364,-1 -0.119107,-0.231524 -0.2413594,-0.468805 -0.2727271,-0.727273 -0.02558,-0.210775 0.01092,-0.424324 0,-0.636364 -0.00952,-0.184764 -0.05487,-0.365773 -0.075067,-0.549676 -0.020197,-0.183902 -0.013031,-0.378547 0.075067,-0.541233 0.092631,-0.171058 0.2638541,-0.287557 0.3636361,-0.454545 0.08384,-0.140307 0.111759,-0.306874 0.181818,-0.454546 0.106566,-0.224623 0.302888,-0.391558 0.494863,-0.549536 0.191976,-0.157978 0.390677,-0.320668 0.505137,-0.541373 0.07519,-0.144976 0.109936,-0.307903 0.181819,-0.454545 0.133689,-0.272726 0.384944,-0.469419 0.545454,-0.727273 0.08664,-0.139186 0.145581,-0.2946513 0.181818,-0.4545453 0.111621,-0.4925273 0.0086,-1.0049015 -0.08226,-1.5016748 C 12.190501,7.7288246 12.113392,7.2064967 12.272724,6.7272727 12.363654,6.4537833 12.528462,6.2086597 12.727273,6 13.03474,5.6773014 13.421982,5.4390663 13.828848,5.2570474 c 0.406865,-0.1820189 0.83521,-0.3105372 1.262061,-0.4388656 0.710698,-0.2136639 1.442726,-0.4306214 2.181818,-0.3636364 0.362897,0.03289 0.726466,0.1384156 1.019489,0.3550109 0.146512,0.1082976 0.273853,0.2436576 0.366611,0.4004698 0.09276,0.1568121 0.150362,0.3352764 0.159355,0.5172466 0.0045,0.090815 -0.003,0.1818506 0,0.2727273 0.0068,0.2073364 0.06925,0.4127714 0.180213,0.5880452 C 19.109362,6.7633189 19.268684,6.907858 19.454545,7 c 0.193447,0.095903 0.410528,0.1341655 0.62579,0.150933 0.215262,0.016767 0.431752,0.013165 0.646938,0.030885 0.273563,0.022527 0.543933,0.079425 0.818182,0.090909 0.532,0.022277 1.057704,-0.1273586 1.549864,-0.3305776 0.492161,-0.2032191 0.960336,-0.460579 1.450136,-0.6694224 1.173102,-0.5001928 2.449966,-0.7140331 3.636363,-1.1818181 0.474327,-0.1870226 0.947483,-0.4255243 1.272727,-0.8181819 0.09667,-0.1167037 0.178449,-0.2449951 0.272728,-0.3636363 0.282492,-0.3554883 0.676556,-0.618168 1.108922,-0.7568536 0.432366,-0.1386855 0.90129,-0.1548238 1.345623,-0.061328 0.563115,0.1184893 1.081056,0.4088272 1.518595,0.7825888 0.437539,0.3737615 0.798848,0.8293344 1.117769,1.3083203 0.135639,0.2037158 0.26574,0.4157552 0.332145,0.6513152 0.0332,0.1177799 0.04997,0.2407897 0.04221,0.362914 -0.0078,0.1221242 -0.04051,0.2433904 -0.101628,0.3494071 C 34.983309,6.7321109 34.798497,6.8581153 34.636364,7 34.355081,7.2461538 34.12883,7.5582141 34,7.9090909 c -0.08128,0.2213738 -0.123616,0.4582181 -0.111943,0.693753 0.01167,0.2355349 0.07835,0.4696036 0.202852,0.6698833 0.181736,0.2923466 0.472038,0.496298 0.727273,0.7272728 0.541211,0.489768 0.947665,1.126611 1.545454,1.545455 0.515514,0.361198 1.138891,0.535395 1.680134,0.856759 0.270621,0.160681 0.522784,0.361228 0.704135,0.618456 0.181352,0.257228 0.287434,0.575682 0.252095,0.888421 -0.02647,0.234272 -0.129885,0.454544 -0.264164,0.64833 -0.13428,0.193786 -0.299209,0.364015 -0.463109,0.533488 -0.361953,0.374261 -0.728075,0.756847 -0.965077,1.220432 -0.1185,0.231792 -0.203115,0.482669 -0.230883,0.741511 -0.02777,0.258842 0.0027,0.525958 0.105051,0.76533 0.102503,0.239776 0.273443,0.445197 0.466878,0.620075 0.193434,0.174879 0.410083,0.321751 0.624031,0.470834 0.508864,0.354587 1.010454,0.728395 1.425488,1.189287 0.415035,0.460892 0.742167,1.017639 0.84724,1.628895 0.03631,0.211243 0.04595,0.426791 0.09091,0.636363 0.03883,0.180994 0.104229,0.360822 0.09091,0.545455 -0.01033,0.143161 -0.06871,0.280668 -0.15461,0.395655 -0.08591,0.114986 -0.198481,0.208319 -0.321077,0.282966 -0.24519,0.149293 -0.526855,0.224392 -0.797041,0.321379 -0.585543,0.210189 -1.136132,0.535022 -1.564853,0.985842 -0.428721,0.45082 -0.730313,1.032176 -0.798783,1.650522 -0.07934,0.716473 0.155973,1.442089 0.540706,2.051686 0.384734,0.609597 0.911502,1.116114 1.459294,1.584677 0.312352,0.267176 0.643517,0.537017 0.818182,0.909091 0.158941,0.33858 0.170482,0.730375 0.111133,1.099666 -0.05935,0.369292 -0.185375,0.723925 -0.292951,1.082152 -0.435307,1.44957 -0.562866,3.049581 0,4.454546 0.100887,0.251824 0.222906,0.495037 0.316311,0.749731 0.0934,0.254694 0.158189,0.525177 0.138234,0.795723 -0.01815,0.246052 -0.106589,0.484254 -0.237743,0.693228 -0.131153,0.208973 -0.304094,0.389687 -0.495498,0.545365 -0.382809,0.311355 -0.835121,0.522298 -1.266759,0.761407 -0.287207,0.1591 -0.56815,0.332653 -0.818182,0.545455 -0.490176,0.417189 -0.850319,0.975274 -1.363636,1.363636 -0.369129,0.279273 -0.803843,0.460095 -1.181818,0.727273 -0.421674,0.298068 -0.763636,0.697053 -1.181818,1 -0.322574,0.233686 -0.695142,0.409469 -1.090909,0.454545 -0.271208,0.03089 -0.54522,1.18e-4 -0.818182,0 -0.36509,-1.57e-4 -0.727635,0.05454 -1.090909,0.09091 -1.148516,0.114999 -2.308536,0.04684 -3.454546,-0.09091 -0.272483,-0.03275 -0.552552,-0.06899 -0.818182,0 -0.303496,0.07883 -0.554034,0.285578 -0.818181,0.454546 -0.554343,0.3546 -1.207841,0.55595 -1.86588,0.560661 -0.658039,0.0047 -1.318218,-0.18918 -1.861393,-0.560661 C 21.497988,45.599198 21.218985,45.320196 21,45"
       id="path5250"
       inkscape:path-effect="#path-effect5252"
       inkscape:original-d="m 21,45 c -1.556084,-0.571078 -3.340049,-1.245702 -3.727273,-3.181818 -0.09528,-0.476389 -0.212382,-1.150469 -0.09091,-1.636364 0.174678,-0.69871 0.708946,-2.673018 0.363637,-3.363636 C 17.282114,36.2915 16.723077,35.9007 16.454545,35.363636 16.070074,34.594694 15.419863,33.7835 14.818182,33.181818 14.419538,32.783174 14.33038,32.115305 14.090909,31.636364 13.744743,30.944031 16.307474,29.649694 15.909091,28.454545 15.712854,27.865834 15.252367,27.504735 15,27 c -0.05101,-0.102012 -0.03826,-0.258332 -0.09091,-0.363636 -0.09091,-0.181819 -0.363636,-0.272728 -0.454546,-0.454546 -0.07321,-0.146429 -0.104468,-0.390755 -0.181818,-0.545454 -0.1046,-0.209201 -0.348953,-0.33427 -0.454545,-0.545455 -0.405782,-0.811563 -0.969768,-1.727485 -1.272727,-2.636364 -0.03636,-0.10909 -0.236364,-0.163636 -0.272728,-0.272727 -0.141761,-0.425284 -0.35932,-0.627731 -0.545454,-1 -0.433527,-0.867053 0.14632,-2.434632 -0.09091,-2.909091 -0.163096,-0.326191 -0.28449,-0.750797 -0.454546,-1.090909 -0.07273,-0.145454 -0.290909,-0.218182 -0.363636,-0.363636 -0.181585,-0.36317 -0.471191,-0.669655 -0.636364,-1 -0.116468,-0.232937 -0.156375,-0.494569 -0.2727271,-0.727273 -0.054948,-0.109897 0,-0.542575 0,-0.636364 0,-0.275352 -0.090934,-0.818106 0,-1.090909 0.056851,-0.170553 0.2644661,-0.30579 0.3636361,-0.454545 0.0981,-0.147154 0.112844,-0.316596 0.181818,-0.454546 0.204218,-0.408435 0.719697,-0.810605 1,-1.090909 0.07943,-0.07943 0.146316,-0.383541 0.181819,-0.454545 0.117452,-0.234904 0.418471,-0.60029 0.545454,-0.727273 0.08594,-0.08594 0.105767,-0.3784936 0.181818,-0.4545453 0.394961,-0.3949604 -0.370285,-2.4412475 -0.09091,-3 C 12.381639,6.5094484 12.569204,6.2107584 12.727273,6 13.243914,5.311145 14.295449,4.9507585 15.090909,4.8181818 15.509672,4.748388 16.857092,4.246728 17.272727,4.4545454 c 0.457096,0.2285481 1.33383,0.8494774 1.545455,1.2727273 0.03636,0.072727 -0.03636,0.2 0,0.2727273 0.113114,0.2262285 0.402453,0.8830446 0.636363,1 0.438741,0.2193703 0.782904,0.1001809 1.272728,0.1818182 0.281666,0.046944 0.518517,0.1408532 0.818182,0.090909 1.02479,-0.1707984 2.009905,-0.7029715 3,-1 1.153937,-0.3461813 2.612646,-0.49934 3.636363,-1.1818181 0.430691,-0.2871272 0.837104,-0.6003701 1.272727,-0.8181819 0.148218,-0.074109 0.195305,-0.2862131 0.272728,-0.3636363 0.650911,-0.6509117 1.468555,-1.1468452 2.454545,-0.8181818 1.42966,0.4765533 1.97119,0.7605617 2.636364,2.0909091 0.2422,0.4844001 0.593139,0.7228133 0.272727,1.3636363 C 35,6.7272727 34.727273,6.8181818 34.636364,7 34.413931,7.444866 34.129301,7.6504893 34,7.9090909 33.870318,8.1684553 33.98389,9.0586886 34.090909,9.2727272 34.219698,9.5303058 34.61274,9.7945578 34.818182,10 c 0.436884,0.436884 0.997718,1.271586 1.545454,1.545455 0.742201,0.3711 2.233519,1.557946 2.636364,2.363636 0.193058,0.386116 -0.492345,0.94689 -0.727273,1.181818 -0.706867,0.706868 -1.624196,1.660699 -1.090909,2.727273 0.193298,0.386595 0.782556,0.782556 1.090909,1.090909 0.537542,0.537541 2.067248,2.201744 2.272728,2.818182 0.06688,0.200638 0.0267,0.443731 0.09091,0.636363 0.03898,0.116948 0.172854,0.381565 0.09091,0.545455 -0.220851,0.441702 -0.898622,0.812947 -1.272728,1 -0.365071,0.182535 -2.255951,2.313309 -2.363636,2.636364 -0.416409,1.249227 1.374795,2.698556 2,3.636363 0.228692,0.343039 0.639419,0.551565 0.818182,0.909091 0.325435,0.65087 0.01055,1.604711 -0.181818,2.181818 -0.255119,0.765355 -0.356354,3.741838 0,4.454546 0.07947,0.158944 0.510001,1.434543 0.454545,1.545454 -0.152611,0.305223 -1.638563,1.819282 -2,2 -0.248187,0.124094 -0.619512,0.346785 -0.818182,0.545455 -0.241293,0.241294 -1.071077,1.168597 -1.363636,1.363636 -0.38991,0.25994 -0.771174,0.45351 -1.181818,0.727273 -0.422998,0.281999 -0.743286,0.780734 -1.181818,1 -0.396714,0.198357 -0.731036,0.274609 -1.090909,0.454545 -0.173411,0.08671 -0.620008,0 -0.818182,0 -0.320419,0 -0.727743,0.211965 -1.090909,0.09091 -0.597955,-0.199318 -2.850596,-0.392883 -3.454546,-0.09091 -0.217879,0.10894 -0.584862,-0.07777 -0.818182,0 -0.318859,0.106287 -0.538527,0.314719 -0.818181,0.454546 -0.358159,0.179079 -3.338263,0.194505 -3.727273,0 C 21.503375,45.660778 21.217902,45.36317 21,45 z"
       inkscape:connector-curvature="0" />
  </g>
</svg>
